<svg id="Layer_3" enable-background="new 0 0 64 64" height="512" viewBox="0 0 64 64" width="512" xmlns="http://www.w3.org/2000/svg"><g><path d="m62.997 16c0-.184-.048-.368-.149-.53l-4.848-7.757v-5.713c0-.553-.448-1-1-1h-22c-.552 0-1 .447-1 1v5.624l-6.752 7.718c-.163.185-.238.42-.238.658h-.01v7.155c-.658-.094-1.324-.155-2-.155-4.718 0-9.098 2.344-11.715 6.27l-1.291 1.937c-4.291.876-10.994 2.872-10.994 6.793 0 7.118 3.568 13.409 9 17.209v.791c0 3.99 6.449 7 15 7h27c.189 0 .355-.066.506-.157l.009.015 4.485-2.692 4.485 2.691c.159.095.337.143.515.143.17 0 .34-.043.493-.13.313-.178.507-.51.507-.87v-46zm-2.801-1h-6.392l3.196-5.113zm-4.196 43.434-3 1.8v-43.234h3zm-20-55.434h20v4h-20zm-21.051 27.379c2.246-3.368 6.003-5.379 10.051-5.379s7.805 2.011 10.051 5.379l7.402 11.103c-3.785 1.413-9.787 2.518-17.453 2.518s-13.668-1.105-17.453-2.518zm29.363 10.286-4.692-7.039c5.077 1.307 7.38 3.072 7.38 4.374 0 .834-.947 1.777-2.688 2.665zm2.688-6.041c-2.324-1.781-6.189-2.845-8.994-3.418l-1.291-1.936c-1.004-1.507-2.272-2.774-3.715-3.772v-.498h14zm-36.62-.997-4.692 7.038c-1.741-.888-2.688-1.831-2.688-2.665 0-1.303 2.305-3.067 7.38-4.373zm-7.026 7.981c4.134 2.872 13.085 4.392 21.646 4.392s17.512-1.52 21.646-4.392c-1.691 8.756-9.404 15.392-18.646 15.392h-6c-9.242 0-16.955-6.637-18.646-15.392zm8.731 14.896c2.956 1.59 6.331 2.496 9.915 2.496h6c3.584 0 6.959-.906 9.915-2.496-.687 2.22-5.794 4.496-12.915 4.496s-12.228-2.276-12.915-4.496zm38.915 4.496h-15.302c2.686-1.251 4.302-3.003 4.302-5v-.791c5.432-3.8 9-10.091 9-17.209v-14c0-.553-.448-1-1-1h-16c-.552 0-1 .447-1 1v.366c-.646-.305-1.312-.561-2-.765v-6.601h22zm-20.796-46 5.25-6h19.742l-3.75 6zm27.796 43.434v-41.434h3v43.233z"/><path d="m28 29h2v2h-2z"/><path d="m18 32h2v2h-2z"/><path d="m24 38h2v2h-2z"/><path d="m33 36h2v2h-2z"/><path d="m13 38h2v2h-2z"/></g></svg>